<mxfile host="app.diagrams.net" modified="2024-07-22T09:48:30.636Z" agent="Mozilla/5.0 (Macintosh; Intel Mac OS X 10_15_7) AppleWebKit/537.36 (KHTML, like Gecko) Chrome/126.0.0.0 Safari/537.36" etag="uVZMJf4Qz9uz_zZzmR4q" version="24.7.1" type="github">
  <diagram id="C5RBs43oDa-KdzZeNtuy" name="Page-1">
    <mxGraphModel dx="954" dy="542" grid="1" gridSize="10" guides="1" tooltips="1" connect="1" arrows="1" fold="1" page="1" pageScale="1" pageWidth="827" pageHeight="1169" math="0" shadow="0">
      <root>
        <mxCell id="WIyWlLk6GJQsqaUBKTNV-0" />
        <mxCell id="WIyWlLk6GJQsqaUBKTNV-1" parent="WIyWlLk6GJQsqaUBKTNV-0" />
        <mxCell id="WIyWlLk6GJQsqaUBKTNV-2" value="" style="rounded=0;html=1;jettySize=auto;orthogonalLoop=1;fontSize=11;endArrow=block;endFill=0;endSize=8;strokeWidth=1;shadow=0;labelBackgroundColor=none;edgeStyle=orthogonalEdgeStyle;" parent="WIyWlLk6GJQsqaUBKTNV-1" source="WIyWlLk6GJQsqaUBKTNV-3" target="WIyWlLk6GJQsqaUBKTNV-6" edge="1">
          <mxGeometry relative="1" as="geometry" />
        </mxCell>
        <mxCell id="WIyWlLk6GJQsqaUBKTNV-3" value="用户上传文件" style="rounded=1;whiteSpace=wrap;html=1;fontSize=12;glass=0;strokeWidth=1;shadow=0;" parent="WIyWlLk6GJQsqaUBKTNV-1" vertex="1">
          <mxGeometry x="160" y="80" width="120" height="40" as="geometry" />
        </mxCell>
        <mxCell id="WIyWlLk6GJQsqaUBKTNV-4" value="Yes" style="rounded=0;html=1;jettySize=auto;orthogonalLoop=1;fontSize=11;endArrow=block;endFill=0;endSize=8;strokeWidth=1;shadow=0;labelBackgroundColor=none;edgeStyle=orthogonalEdgeStyle;" parent="WIyWlLk6GJQsqaUBKTNV-1" source="WIyWlLk6GJQsqaUBKTNV-6" edge="1">
          <mxGeometry y="20" relative="1" as="geometry">
            <mxPoint as="offset" />
            <mxPoint x="220" y="290" as="targetPoint" />
          </mxGeometry>
        </mxCell>
        <mxCell id="WIyWlLk6GJQsqaUBKTNV-5" value="No" style="edgeStyle=orthogonalEdgeStyle;rounded=0;html=1;jettySize=auto;orthogonalLoop=1;fontSize=11;endArrow=block;endFill=0;endSize=8;strokeWidth=1;shadow=0;labelBackgroundColor=none;" parent="WIyWlLk6GJQsqaUBKTNV-1" source="WIyWlLk6GJQsqaUBKTNV-6" target="WIyWlLk6GJQsqaUBKTNV-7" edge="1">
          <mxGeometry y="10" relative="1" as="geometry">
            <mxPoint as="offset" />
          </mxGeometry>
        </mxCell>
        <mxCell id="WIyWlLk6GJQsqaUBKTNV-6" value="判断是否可以上传" style="rhombus;whiteSpace=wrap;html=1;shadow=0;fontFamily=Helvetica;fontSize=12;align=center;strokeWidth=1;spacing=6;spacingTop=-4;" parent="WIyWlLk6GJQsqaUBKTNV-1" vertex="1">
          <mxGeometry x="170" y="170" width="100" height="80" as="geometry" />
        </mxCell>
        <mxCell id="WIyWlLk6GJQsqaUBKTNV-7" value="抛出异常" style="rounded=1;whiteSpace=wrap;html=1;fontSize=12;glass=0;strokeWidth=1;shadow=0;" parent="WIyWlLk6GJQsqaUBKTNV-1" vertex="1">
          <mxGeometry x="320" y="190" width="120" height="40" as="geometry" />
        </mxCell>
        <mxCell id="WIyWlLk6GJQsqaUBKTNV-9" value="失败" style="edgeStyle=orthogonalEdgeStyle;rounded=0;html=1;jettySize=auto;orthogonalLoop=1;fontSize=11;endArrow=block;endFill=0;endSize=8;strokeWidth=1;shadow=0;labelBackgroundColor=none;" parent="WIyWlLk6GJQsqaUBKTNV-1" target="WIyWlLk6GJQsqaUBKTNV-12" edge="1">
          <mxGeometry y="10" relative="1" as="geometry">
            <mxPoint as="offset" />
            <mxPoint x="270" y="330" as="sourcePoint" />
          </mxGeometry>
        </mxCell>
        <mxCell id="WIyWlLk6GJQsqaUBKTNV-12" value="抛出异常" style="rounded=1;whiteSpace=wrap;html=1;fontSize=12;glass=0;strokeWidth=1;shadow=0;" parent="WIyWlLk6GJQsqaUBKTNV-1" vertex="1">
          <mxGeometry x="320" y="310" width="120" height="40" as="geometry" />
        </mxCell>
        <mxCell id="QZ4jsXypiUciuqVz7EKa-1" value="" style="edgeStyle=orthogonalEdgeStyle;rounded=0;orthogonalLoop=1;jettySize=auto;html=1;" edge="1" parent="WIyWlLk6GJQsqaUBKTNV-1" source="QZ4jsXypiUciuqVz7EKa-0">
          <mxGeometry relative="1" as="geometry">
            <mxPoint x="220" y="430" as="targetPoint" />
          </mxGeometry>
        </mxCell>
        <mxCell id="QZ4jsXypiUciuqVz7EKa-0" value="&lt;meta charset=&quot;utf-8&quot;&gt;&lt;span style=&quot;color: rgb(0, 0, 0); font-family: Helvetica; font-size: 12px; font-style: normal; font-variant-ligatures: normal; font-variant-caps: normal; font-weight: 400; letter-spacing: normal; orphans: 2; text-align: center; text-indent: 0px; text-transform: none; widows: 2; word-spacing: 0px; -webkit-text-stroke-width: 0px; white-space: normal; background-color: rgb(251, 251, 251); text-decoration-thickness: initial; text-decoration-style: initial; text-decoration-color: initial; display: inline !important; float: none;&quot;&gt;上传到 FTP&lt;/span&gt;" style="rounded=1;whiteSpace=wrap;html=1;" vertex="1" parent="WIyWlLk6GJQsqaUBKTNV-1">
          <mxGeometry x="160" y="290" width="120" height="60" as="geometry" />
        </mxCell>
        <mxCell id="QZ4jsXypiUciuqVz7EKa-2" value="&lt;span style=&quot;font-weight: 400;&quot;&gt;异步上传到ArkHub&lt;/span&gt;" style="swimlane;whiteSpace=wrap;html=1;" vertex="1" parent="WIyWlLk6GJQsqaUBKTNV-1">
          <mxGeometry x="120" y="430" width="560" height="610" as="geometry" />
        </mxCell>
        <mxCell id="QZ4jsXypiUciuqVz7EKa-5" value="" style="edgeStyle=orthogonalEdgeStyle;rounded=0;orthogonalLoop=1;jettySize=auto;html=1;" edge="1" parent="QZ4jsXypiUciuqVz7EKa-2" source="QZ4jsXypiUciuqVz7EKa-3" target="QZ4jsXypiUciuqVz7EKa-4">
          <mxGeometry relative="1" as="geometry" />
        </mxCell>
        <mxCell id="QZ4jsXypiUciuqVz7EKa-3" value="更新此订单中的这个 key的状态为IN_PROGRESS" style="rounded=1;whiteSpace=wrap;html=1;" vertex="1" parent="QZ4jsXypiUciuqVz7EKa-2">
          <mxGeometry x="40" y="40" width="120" height="60" as="geometry" />
        </mxCell>
        <mxCell id="QZ4jsXypiUciuqVz7EKa-10" value="" style="edgeStyle=orthogonalEdgeStyle;rounded=0;orthogonalLoop=1;jettySize=auto;html=1;entryX=0;entryY=0.5;entryDx=0;entryDy=0;" edge="1" parent="QZ4jsXypiUciuqVz7EKa-2" source="QZ4jsXypiUciuqVz7EKa-4" target="QZ4jsXypiUciuqVz7EKa-9">
          <mxGeometry relative="1" as="geometry" />
        </mxCell>
        <mxCell id="QZ4jsXypiUciuqVz7EKa-4" value="&lt;span style=&quot;color: rgb(0, 0, 0); font-family: Helvetica; font-size: 12px; font-style: normal; font-variant-ligatures: normal; font-variant-caps: normal; font-weight: 400; letter-spacing: normal; orphans: 2; text-align: center; text-indent: 0px; text-transform: none; widows: 2; word-spacing: 0px; -webkit-text-stroke-width: 0px; white-space: normal; background-color: rgb(251, 251, 251); text-decoration-thickness: initial; text-decoration-style: initial; text-decoration-color: initial; display: inline !important; float: none;&quot;&gt;更新此key的的基础数据表的状态为IN_PROGRESS，以及上传时间、ftp path,file name&lt;/span&gt;" style="whiteSpace=wrap;html=1;rounded=1;" vertex="1" parent="QZ4jsXypiUciuqVz7EKa-2">
          <mxGeometry x="40" y="140" width="120" height="80" as="geometry" />
        </mxCell>
        <mxCell id="QZ4jsXypiUciuqVz7EKa-12" value="" style="edgeStyle=orthogonalEdgeStyle;rounded=0;orthogonalLoop=1;jettySize=auto;html=1;" edge="1" parent="QZ4jsXypiUciuqVz7EKa-2" source="QZ4jsXypiUciuqVz7EKa-9" target="QZ4jsXypiUciuqVz7EKa-11">
          <mxGeometry relative="1" as="geometry" />
        </mxCell>
        <mxCell id="QZ4jsXypiUciuqVz7EKa-9" value="从 ftp下载文件" style="whiteSpace=wrap;html=1;rounded=1;" vertex="1" parent="QZ4jsXypiUciuqVz7EKa-2">
          <mxGeometry x="220" y="40" width="120" height="60" as="geometry" />
        </mxCell>
        <mxCell id="QZ4jsXypiUciuqVz7EKa-14" value="" style="edgeStyle=orthogonalEdgeStyle;rounded=0;orthogonalLoop=1;jettySize=auto;html=1;" edge="1" parent="QZ4jsXypiUciuqVz7EKa-2" source="QZ4jsXypiUciuqVz7EKa-11" target="QZ4jsXypiUciuqVz7EKa-13">
          <mxGeometry relative="1" as="geometry" />
        </mxCell>
        <mxCell id="QZ4jsXypiUciuqVz7EKa-11" value="上传到 arkhub" style="whiteSpace=wrap;html=1;rounded=1;" vertex="1" parent="QZ4jsXypiUciuqVz7EKa-2">
          <mxGeometry x="220" y="170" width="120" height="60" as="geometry" />
        </mxCell>
        <mxCell id="QZ4jsXypiUciuqVz7EKa-16" value="" style="edgeStyle=orthogonalEdgeStyle;rounded=0;orthogonalLoop=1;jettySize=auto;html=1;entryX=0;entryY=0.5;entryDx=0;entryDy=0;" edge="1" parent="QZ4jsXypiUciuqVz7EKa-2" source="QZ4jsXypiUciuqVz7EKa-13" target="QZ4jsXypiUciuqVz7EKa-15">
          <mxGeometry relative="1" as="geometry" />
        </mxCell>
        <mxCell id="QZ4jsXypiUciuqVz7EKa-13" value="更新 delivery key和 base key的上传状态为COMPLETE" style="whiteSpace=wrap;html=1;rounded=1;" vertex="1" parent="QZ4jsXypiUciuqVz7EKa-2">
          <mxGeometry x="220" y="280" width="120" height="60" as="geometry" />
        </mxCell>
        <mxCell id="QZ4jsXypiUciuqVz7EKa-19" value="" style="edgeStyle=orthogonalEdgeStyle;rounded=0;orthogonalLoop=1;jettySize=auto;html=1;" edge="1" parent="QZ4jsXypiUciuqVz7EKa-2" source="QZ4jsXypiUciuqVz7EKa-15" target="QZ4jsXypiUciuqVz7EKa-18">
          <mxGeometry relative="1" as="geometry" />
        </mxCell>
        <mxCell id="QZ4jsXypiUciuqVz7EKa-15" value="更新 delivery order的delivery状态为QUEUE_FOR_QC" style="whiteSpace=wrap;html=1;rounded=1;" vertex="1" parent="QZ4jsXypiUciuqVz7EKa-2">
          <mxGeometry x="410" y="40" width="120" height="60" as="geometry" />
        </mxCell>
        <mxCell id="QZ4jsXypiUciuqVz7EKa-21" value="" style="edgeStyle=orthogonalEdgeStyle;rounded=0;orthogonalLoop=1;jettySize=auto;html=1;" edge="1" parent="QZ4jsXypiUciuqVz7EKa-2" source="QZ4jsXypiUciuqVz7EKa-18" target="QZ4jsXypiUciuqVz7EKa-20">
          <mxGeometry relative="1" as="geometry" />
        </mxCell>
        <mxCell id="QZ4jsXypiUciuqVz7EKa-18" value="key对应的 destination的业务数据和基础数据更新 delivery状态为QUEUE_FOR_QC" style="whiteSpace=wrap;html=1;rounded=1;" vertex="1" parent="QZ4jsXypiUciuqVz7EKa-2">
          <mxGeometry x="410" y="170" width="120" height="60" as="geometry" />
        </mxCell>
        <mxCell id="QZ4jsXypiUciuqVz7EKa-23" value="" style="edgeStyle=orthogonalEdgeStyle;rounded=0;orthogonalLoop=1;jettySize=auto;html=1;" edge="1" parent="QZ4jsXypiUciuqVz7EKa-2" source="QZ4jsXypiUciuqVz7EKa-20" target="QZ4jsXypiUciuqVz7EKa-22">
          <mxGeometry relative="1" as="geometry" />
        </mxCell>
        <mxCell id="QZ4jsXypiUciuqVz7EKa-20" value="异步上传到 arkhub" style="whiteSpace=wrap;html=1;rounded=1;" vertex="1" parent="QZ4jsXypiUciuqVz7EKa-2">
          <mxGeometry x="410" y="280" width="120" height="60" as="geometry" />
        </mxCell>
        <mxCell id="QZ4jsXypiUciuqVz7EKa-25" value="" style="edgeStyle=orthogonalEdgeStyle;rounded=0;orthogonalLoop=1;jettySize=auto;html=1;" edge="1" parent="QZ4jsXypiUciuqVz7EKa-2" source="QZ4jsXypiUciuqVz7EKa-22" target="QZ4jsXypiUciuqVz7EKa-24">
          <mxGeometry relative="1" as="geometry" />
        </mxCell>
        <mxCell id="QZ4jsXypiUciuqVz7EKa-26" value="是" style="edgeLabel;html=1;align=center;verticalAlign=middle;resizable=0;points=[];" vertex="1" connectable="0" parent="QZ4jsXypiUciuqVz7EKa-25">
          <mxGeometry x="-0.1" y="-1" relative="1" as="geometry">
            <mxPoint as="offset" />
          </mxGeometry>
        </mxCell>
        <mxCell id="QZ4jsXypiUciuqVz7EKa-22" value="上传成功" style="rhombus;whiteSpace=wrap;html=1;rounded=1;" vertex="1" parent="QZ4jsXypiUciuqVz7EKa-2">
          <mxGeometry x="430" y="370" width="80" height="80" as="geometry" />
        </mxCell>
        <mxCell id="QZ4jsXypiUciuqVz7EKa-24" value="保存订单和key数据到订单状态轮训表中以供后续轮训状态" style="whiteSpace=wrap;html=1;rounded=1;" vertex="1" parent="QZ4jsXypiUciuqVz7EKa-2">
          <mxGeometry x="410" y="520" width="120" height="60" as="geometry" />
        </mxCell>
        <mxCell id="QZ4jsXypiUciuqVz7EKa-27" value="保存订单号和key数据到上传错误表中以供重试" style="whiteSpace=wrap;html=1;rounded=1;" vertex="1" parent="QZ4jsXypiUciuqVz7EKa-2">
          <mxGeometry x="220" y="380" width="120" height="60" as="geometry" />
        </mxCell>
        <mxCell id="QZ4jsXypiUciuqVz7EKa-28" value="" style="edgeStyle=orthogonalEdgeStyle;rounded=0;orthogonalLoop=1;jettySize=auto;html=1;" edge="1" parent="QZ4jsXypiUciuqVz7EKa-2" source="QZ4jsXypiUciuqVz7EKa-22" target="QZ4jsXypiUciuqVz7EKa-27">
          <mxGeometry relative="1" as="geometry" />
        </mxCell>
        <mxCell id="QZ4jsXypiUciuqVz7EKa-29" value="否" style="edgeLabel;html=1;align=center;verticalAlign=middle;resizable=0;points=[];" vertex="1" connectable="0" parent="QZ4jsXypiUciuqVz7EKa-28">
          <mxGeometry x="-0.3333" y="1" relative="1" as="geometry">
            <mxPoint as="offset" />
          </mxGeometry>
        </mxCell>
      </root>
    </mxGraphModel>
  </diagram>
</mxfile>
